<svg width="46" height="32" viewBox="0 0 46 32" fill="none" xmlns="http://www.w3.org/2000/svg">
<path d="M45.1355 11.5473C45.3985 11.3816 45.6167 11.1442 45.7684 10.8588C45.9201 10.5733 46 10.2498 46 9.92047V1.88217C46 1.63499 45.955 1.39023 45.8676 1.16187C45.7802 0.933503 45.6521 0.726007 45.4906 0.551227C45.3291 0.376447 45.1373 0.237808 44.9263 0.143228C44.7153 0.0486474 44.4891 -2.16793e-05 44.2607 8.24318e-09H32.4705V3.1373C32.4705 3.63648 32.2872 4.11521 31.961 4.46819C31.6349 4.82116 31.1925 5.01946 30.7312 5.01946C30.2699 5.01946 29.8275 4.82116 29.5013 4.46819C29.1751 4.11521 28.9918 3.63648 28.9918 3.1373V8.24318e-09H1.73932C1.5109 -2.31252e-05 1.28472 0.0486447 1.07368 0.143224C0.862651 0.237804 0.670901 0.376442 0.509386 0.551222C0.347872 0.726003 0.219755 0.9335 0.132354 1.16187C0.0449529 1.39023 -2.13701e-05 1.63499 7.61752e-09 1.88217V9.92047C3.74315e-05 10.2498 0.0798861 10.5733 0.231577 10.8588C0.383267 11.1442 0.601494 11.3816 0.864476 11.5473C1.5923 11.9939 2.19764 12.6414 2.61875 13.4238C3.03986 14.2062 3.26168 15.0954 3.26159 16.0008C3.26149 16.9062 3.03948 17.7954 2.6182 18.5777C2.19692 19.3599 1.59145 20.0073 0.86353 20.4537C0.600668 20.6194 0.382585 20.8569 0.231059 21.1424C0.0795321 21.4278 -0.000135618 21.7513 1.0291e-05 22.0806V30.1178C-1.10864e-05 30.365 0.0449627 30.6098 0.132363 30.8381C0.219764 31.0665 0.347879 31.274 0.509393 31.4488C0.670907 31.6236 0.862655 31.7622 1.07369 31.8568C1.28472 31.9514 1.5109 32 1.73932 32H28.9918V28.8627C28.9918 28.3635 29.1751 27.8848 29.5013 27.5318C29.8275 27.1788 30.2699 26.9805 30.7312 26.9805C31.1925 26.9805 31.6349 27.1788 31.961 27.5318C32.2872 27.8848 32.4705 28.3635 32.4705 28.8627V32H44.2607C44.4891 32 44.7153 31.9514 44.9263 31.8568C45.1373 31.7622 45.3291 31.6236 45.4906 31.4488C45.6521 31.274 45.7802 31.0665 45.8676 30.8381C45.955 30.6098 46 30.365 46 30.1178V22.0806C46 21.7513 45.9201 21.4277 45.7684 21.1423C45.6167 20.8568 45.3985 20.6194 45.1355 20.4537C44.4078 20.0071 43.8025 19.3596 43.3814 18.5773C42.9603 17.795 42.7384 16.9059 42.7384 16.0005C42.7384 15.0952 42.9603 14.206 43.3814 13.4237C43.8025 12.6414 44.4078 11.9939 45.1355 11.5473ZM32.4705 22.3793C32.4705 22.8784 32.2872 23.3572 31.961 23.7101C31.6348 24.0631 31.1924 24.2614 30.7311 24.2614C30.2699 24.2614 29.8275 24.0631 29.5013 23.7101C29.1751 23.3572 28.9918 22.8784 28.9918 22.3793V19.242C28.9918 18.7428 29.1751 18.264 29.5013 17.9111C29.8275 17.5581 30.2699 17.3598 30.7311 17.3598C31.1924 17.3598 31.6348 17.5581 31.961 17.9111C32.2872 18.264 32.4705 18.7428 32.4705 19.242V22.3793ZM32.4705 12.758C32.4705 13.2572 32.2872 13.7359 31.961 14.0889C31.6348 14.4419 31.1924 14.6402 30.7311 14.6402C30.2699 14.6402 29.8275 14.4419 29.5013 14.0889C29.1751 13.7359 28.9918 13.2572 28.9918 12.758V9.62072C28.9918 9.12154 29.1751 8.6428 29.5013 8.28983C29.8275 7.93685 30.2699 7.73855 30.7311 7.73855C31.1924 7.73855 31.6348 7.93685 31.961 8.28983C32.2872 8.6428 32.4705 9.12154 32.4705 9.62072V12.758Z" fill="#5D5AE3"/>
</svg>
